<?xml version="1.0" encoding="UTF-8" standalone="no"?>
<!-- Created with Inkscape (http://www.inkscape.org/) -->

<svg
   width="151.2702"
   height="168.67268"
   viewBox="0 0 151.2702 168.67268"
   version="1.1"
   id="svg1"
   xml:space="preserve"
   xmlns:inkscape="http://www.inkscape.org/namespaces/inkscape"
   xmlns:sodipodi="http://sodipodi.sourceforge.net/DTD/sodipodi-0.dtd"
   xmlns="http://www.w3.org/2000/svg"
   xmlns:svg="http://www.w3.org/2000/svg"><sodipodi:namedview
     id="namedview1"
     pagecolor="#505050"
     bordercolor="#ffffff"
     borderopacity="1"
     inkscape:showpageshadow="0"
     inkscape:pageopacity="0"
     inkscape:pagecheckerboard="1"
     inkscape:deskcolor="#505050"
     inkscape:document-units="px"><inkscape:page
       x="0"
       y="0"
       width="151.2702"
       height="168.67268"
       id="page2"
       margin="0"
       bleed="0" /></sodipodi:namedview><defs
     id="defs1" /><g
     inkscape:label="Layer 1"
     inkscape:groupmode="layer"
     id="layer1"
     transform="translate(-14.276485,-3.6564084)"><g
       id="g1"
       transform="matrix(3.1514625,0,0,3.1235708,-23.541065,-15.085153)"><g
         id="color"><path
           fill="#6a3179"
           d="m 48.8559,16 c 3,-2 4,-5 3,-9 7,2 6,10 3,15"
           id="path1" /><path
           fill="#6a3179"
           d="m 23.1441,16 c -3,-2 -4,-5 -3,-9 -7,2 -6,10 -3,15"
           id="path2" /><path
           fill="#8a3f9e"
           d="M 36,13 C 23.3177,13 13,23.3177 13,36 13,48.6823 23.3177,59 36,59 48.6822,59 59,48.6822 59,36 59,23.3176 48.6822,13 36,13 Z"
           id="path3" /></g><g
         id="hair" /><g
         id="skin" /><g
         id="skin-shadow" /><g
         id="line"><circle
           cx="36"
           cy="36"
           r="23"
           fill="none"
           stroke="#000000"
           stroke-miterlimit="10"
           stroke-width="2"
           id="circle3" /><path
           d="m 30,32.9252 c 0,1.6567 -1.3448,3 -3,3 -1.6553,0 -3,-1.3433 -3,-3 0,-1.6553 1.3447,-3 3,-3 1.6552,0 3,1.3448 3,3"
           id="path4" /><path
           d="m 48,32.9252 c 0,1.6567 -1.3447,3 -3,3 -1.6553,0 -3,-1.3433 -3,-3 0,-1.6553 1.3447,-3 3,-3 1.6553,0 3,1.3448 3,3"
           id="path5" /><line
           x1="23"
           x2="30"
           y1="25"
           y2="29"
           fill="none"
           stroke="#000000"
           stroke-linecap="round"
           stroke-linejoin="round"
           stroke-miterlimit="10"
           stroke-width="2"
           id="line5" /><line
           x1="49"
           x2="42"
           y1="25"
           y2="29"
           fill="none"
           stroke="#000000"
           stroke-linecap="round"
           stroke-linejoin="round"
           stroke-miterlimit="10"
           stroke-width="2"
           id="line6" /><path
           fill="none"
           stroke="#000000"
           stroke-linecap="round"
           stroke-linejoin="round"
           stroke-miterlimit="10"
           stroke-width="2"
           d="m 48.8559,16 c 3,-2 4,-5 3,-9 7,2 6,10 3,15"
           id="path6" /><path
           fill="none"
           stroke="#000000"
           stroke-linecap="round"
           stroke-linejoin="round"
           stroke-miterlimit="10"
           stroke-width="2"
           d="m 23.1441,16 c -3,-2 -4,-5 -3,-9 -7,2 -6,10 -3,15"
           id="path7" /><path
           fill="none"
           stroke="#000000"
           stroke-linecap="round"
           stroke-linejoin="round"
           stroke-miterlimit="10"
           stroke-width="2"
           d="m 42.5,43 c -1.2841,0.6376 -3.9847,1.0308 -6.8421,0.9981 C 33.0344,43.9681 30.6682,43.5835 29.5,43"
           id="path8" /></g></g><rect
       style="fill:#8a3f9e;fill-opacity:1"
       id="rect1"
       width="93.524704"
       height="80.681526"
       x="42.810604"
       y="56.971035" /></g></svg>
