<?xml version="1.0" encoding="UTF-8" standalone="no"?>
<!-- Created with Inkscape (http://www.inkscape.org/) -->

<svg
   width="179.39125"
   height="179.71907"
   viewBox="0 0 179.39125 179.71907"
   version="1.1"
   id="svg1"
   xml:space="preserve"
   xmlns:inkscape="http://www.inkscape.org/namespaces/inkscape"
   xmlns:sodipodi="http://sodipodi.sourceforge.net/DTD/sodipodi-0.dtd"
   xmlns="http://www.w3.org/2000/svg"
   xmlns:svg="http://www.w3.org/2000/svg"><sodipodi:namedview
     id="namedview1"
     pagecolor="#505050"
     bordercolor="#ffffff"
     borderopacity="1"
     inkscape:showpageshadow="0"
     inkscape:pageopacity="0"
     inkscape:pagecheckerboard="1"
     inkscape:deskcolor="#505050"
     inkscape:document-units="px"><inkscape:page
       x="0"
       y="0"
       width="179.39125"
       height="179.71907"
       id="page2"
       margin="0"
       bleed="0" /></sodipodi:namedview><defs
     id="defs1" /><g
     inkscape:label="Layer 1"
     inkscape:groupmode="layer"
     id="layer1"
     transform="translate(-0.3838042,-0.58157003)"><g
       id="g1"
       transform="matrix(3.7373176,0,0,3.7441475,-44.464007,-44.3482)"><g
         id="color"><path
           fill="#e27022"
           d="M 36,13 C 23.3177,13 13,23.3177 13,36 13,48.6822 23.3177,59 36,59 48.6822,59 59,48.6822 59,36 59,23.3177 48.6822,13 36,13 Z"
           id="path1" /></g><g
         id="hair" /><g
         id="skin" /><g
         id="skin-shadow" /><g
         id="line"><circle
           cx="36"
           cy="36"
           r="23"
           fill="none"
           stroke="#000000"
           stroke-miterlimit="10"
           stroke-width="2"
           id="circle1" /><path
           fill="none"
           stroke="#000000"
           stroke-linecap="round"
           stroke-linejoin="round"
           stroke-miterlimit="10"
           stroke-width="2"
           d="m 28,46 c 1.5805,-2.5575 4.9043,-4.1349 8.4211,-4.0038 C 39.6499,42.1166 42.5622,43.6595 44,46"
           id="path2" /><path
           d="m 30,32.9252 c 0,1.6567 -1.3448,3 -3,3 -1.6553,0 -3,-1.3433 -3,-3 0,-1.6553 1.3447,-3 3,-3 1.6552,0 3,1.3448 3,3"
           id="path3" /><path
           d="m 48,32.9252 c 0,1.6567 -1.3447,3 -3,3 -1.6553,0 -3,-1.3433 -3,-3 0,-1.6553 1.3447,-3 3,-3 1.6553,0 3,1.3448 3,3"
           id="path4" /><line
           x1="23"
           x2="30"
           y1="24"
           y2="28"
           fill="none"
           stroke="#000000"
           stroke-linecap="round"
           stroke-linejoin="round"
           stroke-miterlimit="10"
           stroke-width="2"
           id="line4" /><line
           x1="49"
           x2="42"
           y1="24"
           y2="28"
           fill="none"
           stroke="#000000"
           stroke-linecap="round"
           stroke-linejoin="round"
           stroke-miterlimit="10"
           stroke-width="2"
           id="line5" /></g></g><rect
       style="fill:#e27022;fill-opacity:1"
       id="rect5"
       width="108.51229"
       height="64.734802"
       x="35.860283"
       y="39.353168" /><path
       style="fill:#e27022;fill-opacity:1;stroke-width:0.25"
       d="m 59,131.33281 c -0.99434,-0.40861 -1.750115,-1.19139 -2.142637,-2.2192 -0.58673,-1.53633 -0.264587,-2.52109 1.684771,-5.15019 5.677524,-7.65728 15.226685,-12.9126 26.033171,-14.32721 10.20514,-1.3359 20.485175,1.00451 28.922755,6.5847 2.7739,1.83452 7.09271,6.10271 8.72593,8.62367 1.01084,1.56027 1.27581,2.18371 1.27507,3 -0.002,2.71218 -2.94922,4.52236 -5.16374,3.17204 -0.43432,-0.26483 -1.43712,-1.36129 -2.22845,-2.43657 -4.35665,-5.91996 -10.88468,-9.81626 -19.26337,-11.49746 -3.366408,-0.67547 -10.598563,-0.61211 -14.015603,0.12279 -2.913634,0.62664 -6.271363,1.76016 -8.452897,2.85358 -4.277497,2.14394 -8.358063,5.56488 -10.591232,8.87915 -0.579277,0.85972 -1.331725,1.74559 -1.672107,1.96862 -0.65895,0.43176 -2.488283,0.68225 -3.111661,0.42608 z"
       id="path153" /><path
       style="fill:#e27022;fill-opacity:1;stroke-width:0.25"
       d="m 85.875,172.58346 c -9.256393,-0.56589 -17.380033,-2.32188 -25.5,-5.51205 C 36.456487,157.67431 18.459991,138.00086 11.260536,113.38034 7.8675873,101.77721 7.1090627,88.801827 9.125537,76.858857 13.673368,49.92342 30.875255,27.422326 55.875,15.707768 63.193042,12.278627 71.158792,10.015869 80.5,8.7127669 c 3.640315,-0.5078254 16.043772,-0.4403293 19.92716,0.108438 21.6294,3.0564791 39.99092,13.3483671 53.52708,30.0026701 15.33141,18.8631 21.45263,44.18894 16.50541,68.289215 -5.15302,25.10286 -21.9543,46.47947 -45.30421,57.64147 -12.07718,5.77328 -26.35548,8.61906 -39.28044,7.8289 z M 61.898442,131.34712 c 0.542818,-0.25759 1.332463,-1.09158 2.18953,-2.3125 3.325128,-4.73676 8.417175,-8.31614 15.037028,-10.57006 1.5125,-0.51497 2.51898,-0.94267 2.23662,-0.95044 -0.76312,-0.021 -5.24971,1.54383 -7.11162,2.48038 -3.956643,1.9902 -7.763425,5.16981 -10.523868,8.79004 -1.504757,1.97344 -2.270035,2.4664 -3.825937,2.46452 -1.620308,-0.002 -3.150195,-1.66167 -3.150195,-3.41753 0,-1.31812 1.746802,-3.81804 4.875,-6.9768 4.222405,-4.26367 8.535962,-6.99608 14.1875,-8.98702 1.934067,-0.68134 2.71326,-1.29161 1.069707,-0.8378 -2.92809,0.80849 -7.17078,2.84892 -10.361435,4.98311 -4.13682,2.76708 -9.320905,8.33484 -10.039425,10.78245 -0.930375,3.1693 2.41198,5.97767 5.417095,4.55165 z m 59.855458,-0.06 c 1.32201,-0.70252 1.9961,-1.8602 1.9961,-3.42813 0,-1.17083 -0.14387,-1.53219 -1.29564,-3.25422 -0.7126,-1.06543 -2.25947,-2.91612 -3.4375,-4.11265 -6.74085,-6.84675 -15.81331,-10.74666 -26.519445,-11.39972 -2.70663,-0.1651 -7.997465,0.0791 -7.99735,0.36918 3.5e-5,0.0899 2.55941,0.16784 5.6875,0.17321 6.33941,0.0109 8.488487,0.3275 13.454315,1.98217 6.64282,2.21346 12.12646,5.80454 16.42386,10.75554 3.02601,3.48624 3.74358,5.32074 2.79712,7.15099 -0.78276,1.51368 -3.12563,2.22111 -4.46011,1.34672 -0.31881,-0.20889 -1.32032,-1.31441 -2.22557,-2.45671 -4.6718,-5.89513 -10.70525,-9.57202 -18.55218,-11.30601 -1.977225,-0.43692 -11.125443,-0.81111 -11.124265,-0.45502 4.05e-4,0.1224 1.88478,0.23213 4.1875,0.24384 6.051642,0.0308 10.290875,1.03686 15.376725,3.64928 4.3046,2.21113 7.15775,4.60931 9.85382,8.28254 1.71127,2.33148 2.50102,2.89447 4.08512,2.9121 0.48339,0.005 1.27089,-0.19852 1.75,-0.45311 z M 84.729167,117.09021 c 0.26479,-0.22931 -0.204602,-0.29593 -1.171452,-0.16625 -0.581743,0.078 -1.057715,0.24089 -1.057715,0.36191 0,0.19763 1.975225,0.0243 2.229167,-0.19566 z m -3.013802,-6.82037 c 1.2872,-0.27073 2.4122,-0.56994 2.5,-0.66491 0.430547,-0.4657 -5.612648,0.73747 -6.090365,1.21256 -0.268495,0.26702 -0.321618,0.27512 3.590365,-0.54765 z"
       id="path154" /><path
       style="fill:#e27022;fill-opacity:1;stroke-width:0.25"
       d="m 85.75,172.60301 c -4.32268,-0.37324 -7.001285,-0.68607 -9.5,-1.1095 C 46.915112,166.52245 22.226787,145.53572 12.478152,117.28318 9.7180817,109.28422 8.3352843,101.58192 8.0736974,92.75 7.0980207,59.808377 25.821636,29.629754 55.875,15.704113 63.06252,12.373676 70.38574,10.216969 78.819382,8.9469341 83.670337,8.2164212 95.70402,8.1491981 100.5,8.8258209 c 18.59033,2.6227471 34.54553,10.4880671 47.51089,23.4211091 13.1903,13.157425 21.30447,29.931627 23.64375,48.87807 0.51608,4.179905 0.58209,13.634662 0.12305,17.625 -1.91003,16.60338 -7.58986,30.39516 -17.84546,43.33243 -2.55036,3.21724 -9.04326,9.72727 -12.30723,12.3397 -12.36281,9.895 -26.62664,15.89319 -42.125,17.71431 -3.102755,0.36458 -11.594093,0.65271 -13.75,0.46657 z M 61.975817,131.23355 c 0.505393,-0.28405 1.30821,-1.0969 1.784038,-1.80634 1.324277,-1.97443 4.562502,-5.2421 6.56596,-6.62566 2.471847,-1.70703 5.92047,-3.40685 8.8463,-4.36033 1.349087,-0.43964 2.278277,-0.83523 2.064867,-0.87909 -0.520922,-0.10705 -5.204302,1.53804 -7.09551,2.49238 -3.791545,1.91328 -7.945737,5.39637 -10.425305,8.74113 -1.414947,1.90865 -2.225532,2.45482 -3.641252,2.45342 -1.789628,-0.002 -3.324915,-1.57981 -3.324915,-3.41753 0,-2.62586 6.51322,-9.4407 12.319832,-12.89035 0.96443,-0.57295 1.626453,-1.08409 1.471163,-1.13585 -0.368748,-0.12292 -4.237038,2.21879 -6.020573,3.64461 -3.355875,2.6828 -6.627642,6.39664 -7.710462,8.75227 -0.723483,1.5739 -0.619138,2.71002 0.368375,4.01093 1.161215,1.52974 3.141735,1.95099 4.797482,1.02041 z m 60.211423,-0.18886 c 1.91388,-1.36281 2.03982,-3.75149 0.33048,-6.2686 -7.25449,-10.68271 -21.51242,-16.84793 -36.109595,-15.61402 -1.054523,0.0891 -1.869393,0.20999 -1.810823,0.26857 0.05857,0.0586 2.620015,0.13167 5.692095,0.16245 4.713313,0.0472 5.995543,0.14413 8.210603,0.62058 9.0043,1.93677 16.09214,5.91212 21.44049,12.02531 3.14797,3.59814 3.88221,5.42836 2.92237,7.28449 -0.78228,1.51276 -3.12554,2.22117 -4.45839,1.34785 -0.31787,-0.20828 -1.39517,-1.38967 -2.39401,-2.62532 -3.81412,-4.71844 -8.14715,-7.81511 -13.63546,-9.74481 -4.084013,-1.43595 -6.047483,-1.76127 -11.25,-1.864 l -4.75,-0.0938 4.25,0.20268 c 6.52031,0.31095 10.60638,1.31664 15.44264,3.80086 4.32989,2.22412 7.75749,5.17572 10.36805,8.92824 1.18801,1.70769 2.29104,2.34025 3.84487,2.20496 0.63821,-0.0556 1.49184,-0.34007 1.90668,-0.63546 z M 84.875,116.9423 c 0.162715,-0.15865 -0.14278,-0.18215 -0.875,-0.0673 -0.61875,0.097 -1.2375,0.28314 -1.375,0.41353 -0.158255,0.15006 0.162847,0.17476 0.875,0.0673 0.61875,-0.0934 1.2375,-0.27946 1.375,-0.41353 z m -11.709653,-4.02869 c 1.077808,-0.46001 2.550278,-1.03155 3.272153,-1.27009 0.721875,-0.23854 1.3125,-0.5281 1.3125,-0.64346 0,-0.2969 -1.413355,0.1298 -4.200233,1.26809 -1.322122,0.54002 -2.43669,0.98185 -2.476815,0.98185 -0.04012,0 -0.07295,0.1125 -0.07295,0.25 0,0.34319 -0.0346,0.35256 2.165347,-0.58639 z m 8.550018,-2.64377 c 2.347845,-0.49381 3.090757,-0.76984 2.07194,-0.76984 -0.93108,0 -5.398403,1.02973 -5.662305,1.30518 -0.270003,0.28181 -0.355543,0.29457 3.590365,-0.53534 z"
       id="path155" /><ellipse
       style="fill:#e27022;fill-opacity:1"
       id="path156"
       cx="92.75"
       cy="127.5"
       rx="37.25"
       ry="24.25" /></g></svg>
