<?xml version="1.0" encoding="UTF-8" standalone="no"?>
<!-- Created with Inkscape (http://www.inkscape.org/) -->

<svg
   width="180"
   height="180"
   viewBox="0 0 180 180"
   version="1.1"
   id="svg1"
   xml:space="preserve"
   inkscape:export-filename="bitmap.png"
   inkscape:export-xdpi="96"
   inkscape:export-ydpi="96"
   xmlns:inkscape="http://www.inkscape.org/namespaces/inkscape"
   xmlns:sodipodi="http://sodipodi.sourceforge.net/DTD/sodipodi-0.dtd"
   xmlns="http://www.w3.org/2000/svg"
   xmlns:svg="http://www.w3.org/2000/svg"><sodipodi:namedview
     id="namedview1"
     pagecolor="#505050"
     bordercolor="#ffffff"
     borderopacity="1"
     inkscape:showpageshadow="0"
     inkscape:pageopacity="0"
     inkscape:pagecheckerboard="1"
     inkscape:deskcolor="#505050"
     inkscape:document-units="px"><inkscape:page
       x="0"
       y="0"
       width="180"
       height="180"
       id="page2"
       margin="0"
       bleed="0" /></sodipodi:namedview><defs
     id="defs1" /><g
     inkscape:label="Layer 1"
     inkscape:groupmode="layer"
     id="layer1"><g
       id="g1"
       transform="matrix(3.7499939,0,0,3.7500061,-44.360377,-44.103978)"><g
         id="color"
         style="fill:#fcea2b;fill-opacity:1"><circle
           cx="36.000099"
           cy="36"
           r="22.999901"
           fill="#FCEA2B"
           id="circle1"
           style="fill:#fcea2b;fill-opacity:1" /></g><g
         id="line"><circle
           cx="36"
           cy="36"
           r="23"
           fill="none"
           stroke="#000000"
           stroke-linecap="round"
           stroke-linejoin="round"
           stroke-width="2"
           id="circle2" /><path
           fill="none"
           stroke="#000000"
           stroke-linecap="round"
           stroke-linejoin="round"
           stroke-width="2"
           d="m 45.8149,44.9293 c -2.8995,1.6362 -6.2482,2.5699 -9.8149,2.5699 -3.5667,0 -6.9153,-0.9336 -9.8149,-2.5699"
           id="path2" /><path
           d="m 30,31 c 0,1.6568 -1.3448,3 -3,3 -1.6553,0 -3,-1.3433 -3,-3 0,-1.6552 1.3447,-3 3,-3 1.6552,0 3,1.3448 3,3"
           id="path3" /><path
           d="m 48,31 c 0,1.6568 -1.3447,3 -3,3 -1.6553,0 -3,-1.3433 -3,-3 0,-1.6552 1.3447,-3 3,-3 1.6553,0 3,1.3448 3,3"
           id="path4" /></g><path
         style="fill:#fcea2b;fill-opacity:1"
         d="m 45.708553,28.716036 c -0.273015,0.409523 -0.259746,0.35422 -0.461037,0.79035 -0.266627,0.577692 -0.177573,0.343864 -0.26345,0.987937 -0.02052,0.153878 -0.05297,0.306334 -0.06586,0.461037 -0.07636,0.916325 0.392059,0.533991 0.856212,0.131725 0.176359,-0.152845 0.379734,-0.279911 0.526899,-0.461037 0.07582,-0.09332 0.703185,-1.06735 0.592763,-1.251387 -0.03572,-0.05953 -0.128544,-0.0586 -0.197588,-0.06586 -0.96381,-0.101454 -1.467885,-0.177185 -1.844149,0.790349 -0.139362,0.358361 -0.228785,0.994871 -0.131725,1.383112 0.04335,0.173412 0.679788,-0.305777 0.724487,-0.395175 0.04165,-0.08331 -0.155932,0.114277 -0.197587,0.197588 -0.134943,0.269886 -0.310407,1.101061 -0.197587,1.383111 0.08353,0.20882 0.611551,-0.02735 0.658624,-0.06586 0.404615,-0.331048 1.043629,-1.2819 0.856212,-1.844149 -0.02001,-0.06004 -0.415005,-0.135561 -0.461037,-0.131725 -0.379203,0.0316 -0.689788,0.224927 -0.922075,0.5269 -0.101506,0.131958 -0.473872,0.909239 -0.263449,1.119662 0.03105,0.03105 0.08826,-0.0062 0.131725,0 0.110819,0.01583 0.217754,0.05657 0.329312,0.06586 1.097578,0.09146 3.229687,-1.407553 2.897949,-2.568636 -0.161556,-0.565445 -0.657164,-0.543229 -1.185525,-0.592762 -0.393449,-0.03689 -0.818088,-0.145444 -1.185524,0 -0.391723,0.155057 -2.149059,1.147143 -2.568637,1.910011 -0.107896,0.196176 -0.117759,0.435172 -0.131725,0.658625 -0.0083,0.133282 -0.0082,0.284061 0.06586,0.395175 0.111562,0.167343 0.649204,0.302847 0.79035,0.329312 0.195398,0.03664 0.398582,0.108487 0.592762,0.06586 0.836056,-0.183525 3.072921,-0.755933 3.556573,-1.84415 0.08025,-0.180557 0.03875,-0.399011 0,-0.592762 -0.09023,-0.45114 -0.341426,-0.532906 -0.79035,-0.592762 -0.725098,-0.09668 -1.915175,-0.128031 -2.634498,0.131725 -0.84349,0.304593 -2.672013,1.562892 -1.778287,2.700361 0.980355,1.247725 3.913973,0.514087 4.676235,-0.658625 0.124916,-0.192178 0.16184,-0.432221 0.197588,-0.658624 0.03082,-0.19517 0.09245,-0.418137 0,-0.592762 -0.673777,-1.27269 -3.123943,-0.275291 -3.754161,0.131724 -0.450235,0.290777 -0.689563,0.834341 -0.922075,1.31725 -0.06735,0.139871 -0.02316,0.33386 0.06586,0.461037 0.139251,0.19893 0.944257,0.31888 1.053799,0.329312 0.181239,0.01726 1.095338,0.01246 1.31725,-0.06586 0.708552,-0.250077 1.411799,-1.109563 0.922074,-1.844149"
         id="path5" /><path
         style="fill:#fcea2b;fill-opacity:1"
         d="m 47.025803,33.326409 c -0.08782,-0.06586 -0.154602,-0.18339 -0.26345,-0.197587 -0.413626,-0.05395 -0.834258,0 -1.251387,0 -0.439083,0 -0.881557,-0.05446 -1.31725,0 -0.623816,0.07798 -1.232189,0.251184 -1.844149,0.395175 -0.135159,0.0318 -0.45727,0.0075 -0.395174,0.131724 0.08096,0.161926 0.347054,0.110974 0.526899,0.131725 0.393176,0.04537 0.791442,0.0292 1.185525,0.06586 3.636583,0.338287 -0.692928,0.156001 4.939685,0.329312 0.329156,0.01013 0.658625,0 0.987937,0 0.04391,0 0.175633,0 0.131725,0 -1.533291,0 -0.653483,0.0175 -3.556573,-0.26345 -0.374048,-0.0362 -0.745829,-0.09338 -1.119662,-0.131725 -0.482453,-0.04948 -0.97341,-0.03661 -1.448975,-0.131725 -0.06089,-0.01218 0.07035,-0.122282 0.131725,-0.131724 0.238688,-0.03672 0.483425,0.01446 0.724487,0 0.8572,-0.05143 1.723478,-0.04546 2.568637,-0.197588 0.270733,-0.04873 0.476124,-0.276906 0.724487,-0.395175 1.113795,-0.530378 1.04484,-0.290243 -1.0538,-0.395174 -0.746798,-0.03734 -1.493013,-0.08566 -2.239324,-0.131725 -1.031981,-0.0637 -2.063555,-0.133885 -3.095536,-0.197588 -0.746311,-0.04607 -1.494663,-0.06403 -2.239324,-0.131725 -0.22297,-0.02027 -0.49013,0.01571 -0.658624,-0.131725 -0.260093,-0.22758 0.495323,-0.556944 1.053799,-0.724487 1.774926,-0.532478 3.652746,-0.76478 5.466585,-1.119662 0.397282,-0.07773 0.795703,-0.1543 1.185525,-0.26345 0.170444,-0.04772 0.61935,-0.184293 0.461037,-0.26345 -0.08096,-0.04048 -0.177051,-0.03886 -0.26345,-0.06586 -0.26506,-0.08283 -0.520466,-0.198024 -0.79035,-0.26345 -1.290946,-0.312957 -1.90897,-0.296207 -3.293123,-0.5269 -0.03063,-0.0051 -0.09635,-0.06 -0.06586,-0.06586 0.58845,-0.113164 1.183324,-0.192054 1.778287,-0.26345 1.291578,-0.154989 2.650565,-0.213049 3.951748,-0.131725 0.02191,0.0014 0.0213,0.06054 0,0.06586 -0.171715,0.04293 -0.350383,0.05279 -0.5269,0.06586 -0.416565,0.03086 -0.834201,0.045 -1.251386,0.06586 -1.672296,0.08361 -0.989164,0.06586 -2.502774,0.06586 -0.197588,0 -0.395175,0 -0.592763,0 -0.04909,0 -0.175633,-0.04391 -0.131724,-0.06586 0.297152,-0.148576 0.656858,-0.104135 0.987937,-0.131724 1.05313,-0.08776 0.789008,-0.06586 1.844149,-0.06586 0.131725,0 0.267383,-0.03195 0.395175,0 0.04763,0.01191 -0.08591,0.04824 -0.131725,0.06586 -0.239839,0.09224 -0.476076,0.197693 -0.724488,0.263449 -1.239329,0.328058 -2.97826,0.343762 -3.951748,1.31725"
         id="path6" /><path
         style="fill:#fcea2b;fill-opacity:1"
         d="M 44.984066,25.422913 41.88853,36.487808"
         id="path7" /><path
         style="fill:#fcea2b;fill-opacity:1"
         d="m 48.145465,33.919171 -1.84415,-5.730034"
         id="path8" /><path
         style="fill:#fcea2b;fill-opacity:1"
         d="m 43.271642,28.650174 3.293123,0.06586"
         id="path9" /><path
         style="fill:#fcea2b;fill-opacity:1"
         d="m 45.576828,29.506386 c -0.197587,0 -0.395175,0 -0.592762,0 -0.702533,0 -1.405066,0 -2.107599,0 -0.153679,0 -0.308903,-0.02173 -0.461037,0 -0.02173,0.0031 -0.02195,0.06586 0,0.06586 1.527746,0 3.208641,-0.487778 4.676235,-0.724487 0.502726,-0.08108 1.01774,-0.08712 1.514837,-0.197587 0.300803,-0.06685 -0.614435,0.04828 -0.922075,0.06586 -0.610085,0.03486 -2.584755,0.120117 -3.095536,0.131725 -0.395073,0.009 -0.790349,0 -1.185524,0 -0.153679,0 -0.461037,-0.153679 -0.461037,0 0,0.153679 0.307491,0.0064 0.461037,0 0.373542,-0.01556 0.745897,-0.05717 1.119662,-0.06586 1.622311,-0.03773 3.250896,0 4.873822,0 0.06586,0 -0.131815,-0.0035 -0.197587,0 -0.351465,0.0185 -0.702309,0.04784 -1.053799,0.06586 -1.804999,0.09256 -1.403446,0.06586 -3.358986,0.06586 -1.02316,0 -1.458931,0.159678 -2.305187,-0.26345 -0.114499,-0.05725 0.07687,-0.286707 0.197588,-0.329312 0.296415,-0.104618 0.610323,-0.157362 0.922074,-0.197588 0.162653,-0.02099 2.387691,-0.130319 2.436912,-0.131725 0.329178,-0.0094 0.658624,0 0.987937,0 0.08782,0 0.347269,-0.02619 0.263449,0 -1.250611,0.390816 -2.46519,0.399417 -3.75416,0.592762 -1.398168,0.209725 -0.644879,0.197588 -1.251387,0.197588 -0.02195,0 0.04421,0.0036 0.06586,0 0.242116,-0.04035 0.481186,-0.09928 0.724487,-0.131725 0.831509,-0.110868 1.669653,-0.165436 2.502774,-0.26345 0.329951,-0.03882 0.657359,-0.09867 0.987937,-0.131725 0.109226,-0.01092 0.427495,-0.04909 0.329313,0 -0.404053,0.202026 -1.705159,0.338514 -1.975874,0.395175 -1.126067,0.235688 -2.253816,0.54682 -3.293124,1.053799 -0.78607,0.383449 -1.28885,0.799867 -0.987937,0.987937 0.148937,0.09309 0.351343,0.0052 0.5269,0 0.570983,-0.01679 1.142306,-0.03023 1.712424,-0.06586 1.537706,-0.09611 3.070948,-0.266479 4.610373,-0.329312 0.614596,-0.02509 1.233019,-0.004 1.844149,0.06586 0.166117,0.01899 0.415105,0.03682 0.461037,0.197587 0.03862,0.135167 -0.198791,0.211242 -0.329312,0.26345 -1.434702,0.573881 -1.989091,0.420152 -3.688298,0.724487 -0.686786,0.123007 -1.366474,0.285469 -2.041737,0.461038 -0.423358,0.110073 -0.838232,0.251469 -1.251387,0.395175 -0.09273,0.03225 -0.359452,0.111153 -0.26345,0.131725 1.25055,0.267974 2.902591,-0.05906 4.149336,-0.197588 0.284496,-0.03161 0.570599,-0.04682 0.856212,-0.06586 0.04381,-0.0029 0.168259,-0.02436 0.131725,0 -0.294546,0.196364 -0.589625,0.405271 -0.922075,0.526899 -1.498304,0.54816 -3.158429,0.530139 -4.54451,1.383112 -0.150744,0.09277 0.351452,0.08926 0.5269,0.06586 0.508029,-0.06774 1.009545,-0.177646 1.514837,-0.26345 1.621919,-0.27542 3.245931,-0.491932 4.873822,-0.724487 0.02173,-0.0031 -0.04439,-0.0046 -0.06586,0 -0.286403,0.06137 -0.566971,0.151406 -0.856212,0.197587 -2.324065,0.371069 -4.656409,0.688715 -6.981422,1.0538 -0.331769,0.0521 -0.687558,0.347777 -0.987937,0.197587 -0.267084,-0.133542 0.566519,-0.191027 0.856212,-0.26345 0.676882,-0.16922 1.357956,-0.322299 2.041737,-0.461037 1.510705,-0.30652 3.02305,-0.608533 4.54451,-0.856212 0.260928,-0.04248 1.051116,-0.0224 0.79035,-0.06586 -0.890875,-0.148479 -3.435248,0.283506 -3.820024,0.329313 -0.965383,0.114926 -1.941904,0.152812 -2.897948,0.329312 -0.4779,0.08823 -0.924109,0.301384 -1.383112,0.461037 -0.04637,0.01613 -0.180437,0.07195 -0.131725,0.06586 0.845962,-0.105746 1.671832,-0.336192 2.502774,-0.5269 2.143421,-0.491933 2.494597,-0.542213 4.610373,-1.448974 0.04512,-0.01934 -0.08274,-0.0626 -0.131725,-0.06586 -0.284772,-0.01899 -0.571131,-0.01358 -0.856212,0 -1.866922,0.0889 -2.219394,0.150868 -4.149336,0.461037 -0.48469,0.0779 -0.962998,0.194025 -1.448974,0.26345 -0.130401,0.01863 -0.51939,0.04384 -0.395175,0 0.492094,-0.17368 1.008573,-0.268609 1.514837,-0.395174 1.337922,-0.334481 2.686728,-0.626463 4.01761,-0.987938 0.786855,-0.213713 1.271959,-0.391566 1.910012,-0.790349 0.01862,-0.01164 -0.04456,0.0053 -0.06586,0 -0.242842,-0.06071 -0.475035,-0.1768 -0.724487,-0.197588 -0.546958,-0.04558 -1.097786,0.0093 -1.646561,0 -1.111821,-0.01884 -3.37119,-0.0911 -4.478648,-0.197587 -0.613176,-0.05896 -1.441771,-0.109086 -1.383112,-0.461037 0.08308,-0.498503 0.880049,-0.949954 1.185524,-1.119662 0.6623,-0.367944 2.169878,-1.017456 2.897949,-1.31725 0.282754,-0.116428 0.569896,-0.221943 0.856212,-0.329312 0.065,-0.02438 0.264341,-0.08494 0.197587,-0.06586 -0.830196,0.237198 -1.593195,0.61592 -2.371048,0.987937 -0.221434,0.105903 -0.443141,0.211775 -0.658625,0.329312 -0.02726,0.01487 -0.09649,0.06076 -0.06586,0.06586 0.564705,0.09412 1.141198,-0.09364 1.712425,-0.131724 0.569964,-0.038 1.142073,-0.03418 1.712424,-0.06586 0.842001,-0.04678 2.463776,-0.257693 3.358986,-0.06586 0.151793,0.03253 0.435708,0.216267 0.329312,0.329312 -0.667577,0.709301 -2.530221,1.143813 -3.293123,1.448974 -1.022453,0.408981 -2.025821,0.864532 -3.029674,1.31725 -0.116696,0.05263 -0.226901,0.120779 -0.329312,0.197587 -0.01756,0.01317 0.04421,0.0036 0.06586,0 0.242115,-0.04035 0.483094,-0.08726 0.724487,-0.131725 2.644943,-0.487226 1.7731,-0.400235 5.33486,-0.592762 0.438443,-0.0237 0.95191,-0.24356 1.31725,0 0.222227,0.148151 0.05713,0.601493 -0.131725,0.790349 -0.326372,0.326372 -0.822226,0.422886 -1.251387,0.592763 -1.259177,0.498424 -2.556795,0.895046 -3.820023,1.383112 -0.330845,0.127826 -0.667016,0.244153 -0.987937,0.395174 -0.05619,0.02644 -0.159495,0.07619 -0.131725,0.131725 0.02945,0.05891 0.131826,0.0037 0.197587,0 0.329535,-0.01831 0.6641,-0.0022 0.987937,-0.06586 1.018837,-0.200427 2.025744,-0.459298 3.029674,-0.724487 0.161653,-0.0427 0.311491,-0.122815 0.461037,-0.197588 0.02777,-0.01389 0.09649,-0.06076 0.06586,-0.06586 -0.151588,-0.02526 -0.308121,-0.01529 -0.461037,0 -1.384717,0.138471 -2.768666,0.286778 -4.149335,0.461037 -1.364598,0.172231 -2.724043,0.383619 -4.083474,0.592762 -0.08947,0.01376 -0.351651,0.08622 -0.263449,0.06586 2.17489,-0.501898 2.40959,-0.604612 4.873822,-0.987937 1.006343,-0.156543 2.020056,-0.26137 3.029674,-0.395175 0.812582,-0.107692 1.625462,-0.213391 2.436911,-0.329312 0.2644,-0.03777 1.053209,-0.17904 0.79035,-0.131725 -1.36055,0.244899 -2.715984,0.521896 -4.083473,0.724487 -1.004872,0.14887 -2.021488,0.204845 -3.029674,0.329312 -0.770348,0.09511 -1.535798,0.226727 -2.305186,0.329312 -0.218701,0.02916 -0.440206,0.09707 -0.658625,0.06586 -0.07836,-0.0112 0.12754,-0.09486 0.197588,-0.131725 0.347532,-0.182912 0.692825,-0.372197 1.053799,-0.5269 1.954923,-0.837824 1.43934,-0.431169 3.293123,-1.383112 0.298108,-0.153082 0.660403,-0.254941 0.856213,-0.526899 0.632226,-0.878092 0.471509,-1.246151 -0.329313,-1.646562 -0.619875,-0.309937 -1.865231,-0.725493 -2.436911,-0.06586 -0.705492,0.814029 -0.378178,3.179156 -0.197588,4.017611 0.169593,0.787395 0.469782,1.541068 0.724488,2.305186 0.266352,0.799058 0.460548,1.898627 1.185524,2.502774 0.25969,0.216409 0.4757,-0.254843 0.5269,-0.592762 0.07835,-0.517085 0.07531,-2.642021 0.06586,-3.161398 -0.04106,-2.258125 -0.0314,-2.048267 -0.395175,-4.412786 -0.09824,-0.638551 -0.193943,-1.278288 -0.329312,-1.910011 -0.06257,-0.291981 -0.02456,-0.677047 -0.26345,-0.856213 -0.175633,-0.131724 -0.02424,0.440426 0,0.658625 0.08572,0.771449 0.27053,1.531219 0.329313,2.305187 0.08881,1.169313 0.06586,4.793709 0.06586,5.927622 0,0.570808 -0.06481,1.145307 0,1.712424 0.02455,0.214825 0.06099,0.668683 0.26345,0.592762 0.260019,-0.09751 0.202491,-0.519422 0.26345,-0.790349 0.137072,-0.609211 0.229881,-1.227676 0.329312,-1.84415 0.120136,-0.744843 0.189063,-1.498004 0.329312,-2.239324 0.321812,-1.701005 0.768916,-3.376134 1.119662,-5.07141 0.09509,-0.459592 0.189301,-0.91968 0.26345,-1.383111 0.01387,-0.08671 0.03459,-0.344167 0,-0.26345 -1.535873,3.583704 -1.039634,2.698493 -1.317249,7.640046 -0.01478,0.263035 -0.02021,0.527676 0,0.79035 0.0024,0.03096 0.05786,0.09586 0.06586,0.06586 0.399205,-1.497017 0.481876,-3.093707 0.79035,-4.610373 0.134796,-0.662747 0.286776,-1.322393 0.461037,-1.975874 0.08944,-0.335405 0.08386,-0.742482 0.329313,-0.987937 0.155239,-0.155239 0.03609,0.44207 0,0.658625 -0.136289,0.817731 -0.749047,3.040422 -0.922075,3.754161 -0.185703,0.766024 -0.355912,1.535743 -0.5269,2.305186 -0.0048,0.02143 0,0.08782 0,0.06586 0,-1.389304 -0.02356,-0.173831 0.5269,-3.293124 0.09283,-0.526039 0.158691,-1.056905 0.26345,-1.580699 0.04909,-0.245455 0.118431,-0.487017 0.197587,-0.724487 0.0098,-0.02946 0.06393,-0.09685 0.06586,-0.06586 0.07268,1.162968 -0.08532,2.330518 -0.131725,3.490711 -0.0079,0.19743 0,0.395175 0,0.592762 0,0.02195 -0.02195,0.06586 0,0.06586 0.03105,0 0.05977,-0.03542 0.06586,-0.06586 0.03899,-0.194942 0.02832,-0.397536 0.06586,-0.592762 0.07241,-0.376514 0.177236,-0.746068 0.26345,-1.119662 0.44271,-1.918411 0.154952,-0.925895 0.724487,-2.634499 0.06586,-0.197587 -0.01069,-0.592762 0.197587,-0.592762 0.197588,0 0.01966,0.396156 0,0.592762 -0.04634,0.463407 -0.123688,0.923295 -0.197587,1.383112 -0.240548,1.496744 -0.550844,2.981737 -0.79035,4.478648 -0.05937,0.371075 -0.507519,1.119662 -0.131725,1.119662 0.378988,0 0.125008,-0.747689 0.197588,-1.119662 0.809216,-4.147232 -0.120362,0.915788 0.592762,-3.095536 0.08593,-0.483331 0.178137,-0.965534 0.26345,-1.448974 0.04642,-0.26302 0.09111,-0.526372 0.131725,-0.79035 0.0033,-0.0217 0.0018,-0.08774 0,-0.06586 -0.114566,1.374792 -0.408658,2.726508 -0.658625,4.083473 -0.06084,0.330277 -0.14777,0.655818 -0.197587,0.987937 -0.01628,0.108556 0,0.439083 0,0.329312 0,-0.801519 -0.04165,9.95e-4 0.26345,-1.185524 0.405445,-1.576733 0.285358,-1.393794 0.526899,-2.963811 0.05763,-0.374581 0.13848,-0.745313 0.197588,-1.119662 0.0068,-0.04337 0.009,-0.174692 0,-0.131725 -0.998609,4.743391 0.588906,-2.261813 -0.724487,2.897948 -0.177399,0.696922 -0.342811,1.398239 -0.461038,2.107599 -0.01488,0.08929 0.01565,0.188133 0.06586,0.26345 0.01722,0.02583 0.06328,-0.03492 0.06586,-0.06586 0.02005,-0.240662 -0.01784,-0.483652 0,-0.724488 0.02615,-0.353032 0.09263,-0.701964 0.131725,-1.053799 0.12103,-1.089267 0.180033,-2.217413 0.395175,-3.293123 0.01722,-0.08611 0.009,0.176091 0,0.263449 -0.226556,2.208918 -0.17898,1.798365 -0.461037,3.490711 -0.04391,0.26345 -0.09395,0.52595 -0.131725,0.79035 -0.0062,0.04347 -0.01631,0.172493 0,0.131725 1.32784,-3.319601 0.04682,-0.423629 1.185524,-2.963811 0.108512,-0.242064 0.210679,-0.48722 0.329313,-0.724487 0.0354,-0.0708 0.08782,-0.26345 0.131724,-0.197588 0.181505,0.272257 -0.578672,1.973955 -0.658624,2.305187 -0.07285,0.30181 -0.09545,0.613722 -0.131725,0.922074 -0.0077,0.06541 -0.04657,0.244159 0,0.197588 0.06401,-0.06401 0.04513,-0.175337 0.06586,-0.26345 0.06709,-0.285119 0.117121,-0.574577 0.197588,-0.856212 0.227035,-0.794625 0.493089,-1.577685 0.724487,-2.371049 0.07604,-0.260696 0.122985,-0.52924 0.197587,-0.79035 0.01349,-0.0472 0.03115,-0.166437 0.06586,-0.131725 0.04657,0.04657 0.0089,0.132329 0,0.197588 -0.05706,0.418424 -0.109705,0.838336 -0.197588,1.251386 -1.362045,6.401612 0.755325,-4.744385 -1.119662,5.005548 -0.01658,0.08624 -0.0213,0.348645 0,0.26345 0.06478,-0.259109 0.07761,-0.528805 0.131725,-0.79035 0.07768,-0.375461 0.200417,-0.741466 0.26345,-1.119662 0.157177,-0.94306 0.242122,-2.202303 0.329313,-3.161398 0.01998,-0.219731 0.04589,-0.438894 0.06586,-0.658625 0.002,-0.02186 0,-0.08782 0,-0.06586 0,0.573247 0.02446,0.02346 -0.395175,1.185524 -1.816272,5.029677 1.175524,-2.929326 -1.119662,3.095536 -0.133552,0.350576 -0.271929,0.699469 -0.395175,1.0538 -0.05251,0.150957 0.01123,0.532514 -0.131725,0.461037 -0.181512,-0.09076 0.65775,-3.757589 0.79035,-4.346923 0.07948,-0.353246 0.159408,-0.706992 0.26345,-1.053799 0.02821,-0.09404 0.104752,-0.357855 0.131725,-0.26345 0.231046,0.808662 -0.429442,3.100116 -0.658625,3.885885 -0.155512,0.533185 -0.357627,1.051722 -0.5269,1.5807 -0.0067,0.02091 -0.01552,0.05034 0,0.06586 0.192021,0.19202 0.154347,-0.522256 0.197588,-0.79035 0.06724,-0.416908 0.124198,-0.835516 0.197587,-1.251387 0.190078,-1.077105 0.39866,-2.150873 0.592762,-3.22726 0.0474,-0.262845 0.131725,-0.523266 0.131725,-0.79035 0,-0.07916 -0.09045,0.130044 -0.131725,0.197587 -0.200258,0.327695 -0.427065,0.641481 -0.592762,0.987937 -0.521167,1.089714 -1.21055,2.929478 -1.580699,4.083473 -0.152907,0.47671 -0.273754,0.963291 -0.395175,1.448975 -0.03239,0.129554 -0.139938,0.506288 -0.06586,0.395175 0.11553,-0.173296 0.133853,-0.394479 0.197587,-0.592763 0.133859,-0.416449 0.256846,-0.836401 0.395175,-1.251387 0.504067,-1.512201 1.243213,-3.015722 1.448974,-4.610372 0.03371,-0.261284 0.196905,-0.615323 0,-0.79035 -0.161607,-0.143651 -0.445423,0.105197 -0.592762,0.26345 -0.460854,0.494992 -0.855379,1.056301 -1.185524,1.646562 -0.230601,0.412286 -1.831641,4.225749 -1.975874,4.610372 -0.03609,0.09625 -0.754409,1.928069 -0.658625,2.502774 0.01614,0.09685 0.09778,-0.171321 0.131725,-0.26345 0.120003,-0.325723 0.223683,-0.657273 0.329312,-0.987937 0.958873,-3.00169 1.164541,-3.576327 1.910012,-6.322797 0.184119,-0.678332 0.476822,-1.340647 0.526899,-2.041736 0.02876,-0.402597 -0.294017,0.752218 -0.461037,1.119662 -0.747886,1.64535 -1.634381,3.247883 -2.107599,5.005547 -0.04601,0.170914 -0.242862,0.5269 -0.06586,0.5269 0.181038,0 0.08466,-0.352086 0.131725,-0.5269 0.106625,-0.396035 0.202339,-0.795536 0.329312,-1.185524 0.180593,-0.554678 0.401947,-1.095317 0.592762,-1.646562 0.204388,-0.590452 0.376166,-1.192203 0.592762,-1.778286 0.156893,-0.424534 0.369707,-0.826966 0.5269,-1.251387 0.06288,-0.169769 0.07448,-0.355152 0.131725,-0.5269 0.0354,-0.1062 -0.02078,0.226848 -0.06586,0.329312 -0.197709,0.449337 -0.450509,0.872637 -0.658625,1.31725 -0.274997,0.587494 -0.521928,1.187759 -0.79035,1.778286 -0.28045,0.616992 -0.600096,1.216665 -0.856212,1.844149 -0.454343,1.113142 -0.394896,1.206459 -0.658624,2.173462 -0.0058,0.02118 -0.0083,-0.04554 0,-0.06586 0.189919,-0.464248 0.39636,-0.921568 0.592762,-1.383111 0.827948,-1.945679 1.694234,-3.881287 2.436911,-5.86176 0.09314,-0.248383 -0.210678,0.487219 -0.329312,0.724487 -0.254706,0.509412 -0.544063,1.001301 -0.79035,1.514837 -0.785742,1.638355 -1.608865,3.261372 -2.305186,4.939685 -0.163356,0.39373 -0.205855,0.829023 -0.26345,1.251387 -0.0094,0.06879 0.02421,0.253127 0.06586,0.197587 0.351145,-0.468193 1.112331,-2.331426 1.251387,-2.634499 0.606195,-1.321192 1.255178,-2.622787 1.844149,-3.951748 0.267598,-0.603811 0.510287,-1.219397 0.724488,-1.844149 0.05035,-0.146848 0.149809,-0.591621 0.06586,-0.461037 -0.276133,0.42954 -0.483376,0.903485 -0.658625,1.383112 -0.65999,1.80629 -1.284937,3.626597 -1.844149,5.466585 -0.122799,0.404048 -0.15755,0.830992 -0.197587,1.251387 -0.0047,0.04887 0.02377,0.156982 0.06586,0.131725 0.120543,-0.07233 0.197978,-0.204915 0.26345,-0.329313 0.155744,-0.295913 0.272396,-0.611034 0.395175,-0.922074 0.620373,-1.571612 1.274267,-3.189832 1.514837,-4.873823 0.03118,-0.218266 0.259014,-1.251387 -0.395175,-1.251387 -1.310094,0 -1.815495,0.943587 -2.634499,1.910012 -0.607523,0.716877 -1.156219,1.481938 -1.712424,2.239324 -0.475868,0.64799 -0.925493,1.314869 -1.383112,1.975874 -0.13517,0.195246 -0.550998,0.771958 -0.395175,0.592762 0.593969,-0.683064 1.134096,-1.411244 1.712425,-2.107599 1.134565,-1.36611 2.080516,-2.43611 3.293123,-3.754161 0.410047,-0.445704 0.86367,-0.85199 1.251387,-1.317249 0.163905,-0.196686 0.624172,-0.544126 0.395175,-0.658625 -0.45922,-0.22961 -2.475922,2.495533 -2.634499,2.700361 -0.1828,0.236117 -0.361261,0.47603 -0.5269,0.724487 -0.01218,0.01827 -0.01218,0.08413 0,0.06586 0.05446,-0.08169 0.06473,-0.191674 0.131725,-0.26345 0.346214,-0.370943 2.153015,-1.892262 2.239324,-1.975874 0.947808,-0.918189 1.896013,-1.840046 2.766224,-2.832086 0.233441,-0.266123 0.676601,-0.601286 0.526899,-0.922075 -0.13957,-0.299079 -0.671419,-0.159379 -0.987937,-0.06586 -1.290869,0.381393 -2.723212,1.439813 -3.75416,2.239324 -0.479839,0.37212 -0.94507,0.765004 -1.383112,1.185524 -0.114206,0.109637 -0.420795,0.412658 -0.26345,0.395175 0.457254,-0.05081 1.897295,-1.262184 2.041737,-1.383112 0.560583,-0.469326 1.096345,-0.967535 1.646561,-1.448974 0.152327,-0.133286 0.299112,-0.273731 0.461038,-0.395175 0.01756,-0.01317 0.08592,-0.0089 0.06586,0 -1.085535,0.48246 -0.262346,-0.0061 -1.185524,0.658625 -1.036145,0.746024 -1.552667,0.848785 -1.975874,2.239324 -0.03888,0.127756 0.261758,0.07166 0.395174,0.06586 0.37544,-0.01632 0.758124,-0.0292 1.119662,-0.131725 1.115437,-0.316318 2.194827,-0.748179 3.293124,-1.119662 0.39459,-0.133464 0.777908,-0.309361 1.185524,-0.395175 0.403791,-0.08501 -0.304458,0.48942 -0.461037,0.592763 -0.905097,0.597363 -1.876313,1.092664 -2.766224,1.712424 -0.34419,0.239703 -0.617141,0.568219 -0.922074,0.856212 -0.09029,0.08527 -0.26345,0.139258 -0.26345,0.26345 0,0.109771 0.176443,-0.130659 0.26345,-0.197588 0.198406,-0.15262 0.391619,-0.312042 0.592762,-0.461037 0.391703,-0.29015 0.749526,-0.638213 1.185524,-0.856212 0.281151,-0.140575 0.621639,-0.105146 0.922075,-0.197587 0.272783,-0.08393 0.531721,-0.20862 0.790349,-0.329313 0.07173,-0.03347 0.27605,-0.142186 0.197588,-0.131725 -1.402748,0.187033 -3.624115,1.108896 -4.80796,1.712424 -0.243936,0.12436 -1.514837,0.863745 -1.514837,1.251387 0,0.109771 0.221377,0.01999 0.329312,0 0.487028,-0.09019 0.981228,-0.166389 1.448975,-0.329312 1.49,-0.518989 2.973266,-1.066486 4.412785,-1.712424 0.284681,-0.127742 0.503851,-0.372126 0.724487,-0.592762 0.04909,-0.04909 0.129304,-0.169392 0.06586,-0.197588 -0.201621,-0.08961 -0.438833,-0.08514 -0.658625,-0.06586 -2.202282,0.193182 -2.68963,0.145943 -4.346923,0.856212 -0.207756,0.08904 -0.637091,0.10767 -0.592762,0.329312 0.04306,0.215278 0.444826,0.04989 0.658624,0 0.453032,-0.105707 0.880304,-0.301384 1.31725,-0.461037 0.704736,-0.2575 1.415671,-0.500187 2.107599,-0.79035 0.670262,-0.281077 1.479957,-0.390735 1.975874,-0.922074 0.240143,-0.257297 -0.704098,-0.105602 -1.0538,-0.06586 -1.439412,0.16357 -3.881984,1.016835 -5.005547,1.448975 -0.115914,0.04458 -0.387326,0.254601 -0.26345,0.263449 1.091052,0.07793 2.825084,-0.773825 3.820023,-1.185524 0.218487,-0.09041 0.453326,-0.146136 0.658625,-0.26345 0.05718,-0.03268 -0.133692,-0.01597 -0.197588,0 -0.289693,0.07242 -0.571978,0.171917 -0.856212,0.26345 -1.011092,0.325606 -2.020524,0.656359 -3.029673,0.987937 -0.527649,0.17337 -1.058315,0.338261 -1.5807,0.5269 -0.268437,0.09694 -0.684353,0.06432 -0.790349,0.329312 -0.08154,0.203839 0.440778,0.02723 0.658624,0 2.753884,-0.344235 4.761117,-0.620824 7.310735,-1.119662 0.287454,-0.05624 1.14603,-0.24 0.856212,-0.197587 -3.58817,0.525098 -3.19351,0.470028 -6.454522,1.383112 -0.09555,0.02675 -2.816796,0.668619 -3.161399,1.185524 -0.133958,0.200937 0.483075,0.0064 0.724487,0 2.161949,-0.05689 4.299135,-0.31239 6.454522,-0.461037 0.526108,-0.03628 1.053704,-0.04634 1.5807,-0.06586 0.06582,-0.0024 0.244159,-0.04657 0.197587,0 -0.0836,0.0836 -0.216121,0.09759 -0.329312,0.131725 -1.270394,0.383135 -2.547245,0.744527 -3.820024,1.119662 -1.859295,0.548003 -2.408273,0.58077 -3.951748,1.448974 -0.218169,0.122721 -0.704707,0.237148 -0.592762,0.461038 0.128014,0.256027 0.57026,0.07886 0.856212,0.06586 1.391465,-0.06325 4.298454,-0.506587 5.400723,-0.658624 0.153783,-0.02121 0.613013,-0.09753 0.461037,-0.06586 -5.559862,1.158305 1.452505,-0.272741 -4.083473,0.5269 -1.304081,0.188367 -2.59721,0.449851 -3.885886,0.724487 -0.06073,0.01294 -0.189379,0.154787 -0.131725,0.131725 0.164341,-0.06574 0.295307,-0.201301 0.461037,-0.26345 0.539579,-0.202342 1.11482,-0.304779 1.646562,-0.5269 1.205466,-0.503549 2.407529,-1.024947 3.556574,-1.646561 0.205264,-0.111045 0.37726,-0.30908 0.461037,-0.5269 0.196989,-0.512171 -1.058744,-0.676887 -1.844149,-0.724487 -1.052782,-0.0638 -2.106831,-0.149301 -3.161399,-0.131725 -0.27152,0.0045 -0.538214,0.09673 -0.790349,0.197587 -0.04558,0.01823 0.08338,0.05733 0.131724,0.06586 0.327172,0.05774 0.655923,0.119867 0.987938,0.131725 0.899546,0.03213 1.80195,0.05546 2.700361,0 2.122714,-0.131032 3.024494,-0.425283 5.07141,-0.856213 0.438174,-0.09225 0.877379,-0.179665 1.317249,-0.263449 0.02157,-0.0041 0.08773,-0.002 0.06586,0 -1.825948,0.165995 -3.648364,0.351793 -5.466585,0.592762 -0.901823,0.119518 -1.809424,0.21133 -2.700361,0.395175 -0.496393,0.10243 -0.976302,0.278067 -1.448975,0.461037 -0.21079,0.0816 -0.704905,0.133062 -0.592762,0.329312 0.143266,0.250716 0.568711,0.104772 0.856212,0.131725 0.415883,0.03899 0.83495,0.03333 1.251387,0.06586 0.988819,0.07725 1.977511,0.158842 2.963811,0.26345 0.463121,0.04912 0.922422,0.129337 1.383112,0.197587 0.1321,0.01957 0.411739,-0.06665 0.395175,0.06586 -0.07483,0.598656 -1.501407,0.690731 -1.646562,0.724488 -0.549769,0.127853 -1.105927,0.232984 -1.646562,0.395174 -0.339722,0.101917 -0.67789,0.222927 -0.987937,0.395175 -0.09596,0.05331 -0.287515,0.200501 -0.197587,0.26345 0.239957,0.16797 0.564107,0.17595 0.856212,0.197587 1.994834,0.147766 3.738613,0.07948 5.730035,-0.197587 1.522906,-0.211883 3.027298,-0.540945 4.54451,-0.79035 0.08665,-0.01424 0.350629,-0.01057 0.26345,0 -2.39347,0.290118 -4.688356,0.373487 -7.047284,0.922075 -0.311349,0.07241 -0.613211,0.181086 -0.922075,0.26345 -0.02121,0.0057 -0.08139,0.01552 -0.06586,0 0.58718,-0.58718 1.584231,-0.781714 2.305186,-1.119662 0.337936,-0.158408 0.654119,-0.359991 0.987937,-0.5269 0.479339,-0.239669 0.887733,-0.297791 0.724487,-0.461037 -0.03105,-0.03105 -0.08782,0 -0.131725,0 -0.285404,0 -0.570808,0 -0.856212,0 -2.292182,0 -4.580209,0.02572 -6.849696,0.395175 -0.22623,0.03683 -0.573499,-0.01523 -0.658625,0.197587 -0.06724,0.16809 0.345935,0.136895 0.5269,0.131725 0.596166,-0.01703 1.18893,-0.106135 1.778286,-0.197587 1.958044,-0.303835 3.910936,-0.640757 5.86176,-0.987937 0.640097,-0.113916 1.280482,-0.232716 1.910012,-0.395175 0.06013,-0.01552 0.192875,-0.142517 0.131725,-0.131725 -0.424768,0.07496 -0.827535,0.24934 -1.251387,0.329312 -1.097302,0.207038 -4.026445,0.5569 -5.005548,0.658625 -0.767084,0.0797 -1.539256,0.107478 -2.305186,0.197587 -0.35494,0.04176 -0.707083,0.284267 -1.0538,0.197588 -0.200931,-0.05023 0.3359,-0.249216 0.5269,-0.329313 0.493022,-0.206751 1.008437,-0.355503 1.514837,-0.526899 0.920648,-0.311604 1.839621,-0.628651 2.766223,-0.922075 0.391002,-0.123817 0.796434,-0.199615 1.185525,-0.329312 0.07509,-0.02503 0.232987,-0.06092 0.197587,-0.131725 -0.03927,-0.07855 -0.175963,-0.0076 -0.26345,0 -0.417856,0.03634 -0.836913,0.06741 -1.251387,0.131725 -0.859607,0.133387 -1.706048,0.348526 -2.568636,0.461037 -4.635798,0.437339 -2.256893,0.153362 -6.652109,0.79035 -0.460903,0.0668 -0.923093,0.124952 -1.383112,0.197587 -0.04337,0.0068 0.08988,0.01331 0.131725,0 0.443301,-0.14105 0.873343,-0.321903 1.317249,-0.461037 4.767935,-1.494428 1.480777,-0.323534 6.454522,-2.041737 1.299541,-0.448932 2.596828,-0.904913 3.885886,-1.383112 0.07422,-0.02753 0.27575,-0.144231 0.197587,-0.131725 -0.620775,0.09932 -1.228963,0.265662 -1.844149,0.395175 -1.470464,0.309572 -2.941144,0.618149 -4.412785,0.922075 -0.548156,0.113206 -1.103551,0.193559 -1.646562,0.329312 -0.07679,0.0192 -0.272682,0.106693 -0.197587,0.131725 0.126689,0.04223 0.270342,-0.01843 0.395174,-0.06586 0.975623,-0.370737 1.934106,-0.785159 2.897949,-1.185525 0.46322,-0.192414 0.907258,-0.434144 1.383112,-0.592762 0.515245,-0.171748 1.086265,-0.170432 1.580699,-0.395175 0.26059,-0.11845 -0.573684,0.01987 -0.856212,0.06586 -1.659683,0.270181 -4.470185,0.976845 -5.795897,1.383111 -0.118741,0.03639 -0.37453,0.20791 -0.26345,0.26345 0.765581,0.382791 3.49417,-0.17439 3.622436,-0.197587 1.216156,-0.219943 2.413813,-0.532197 3.622435,-0.79035 1.052681,-0.224844 2.108063,-0.436869 3.161399,-0.658624 0.615186,-0.129513 1.281848,-0.114025 1.844149,-0.395175 0.314182,-0.157091 -0.705614,-0.04642 -1.053799,0 -1.960596,0.261413 -3.918747,0.551977 -5.86176,0.922074 -0.826588,0.157446 -1.622392,0.447453 -2.436911,0.658625 -0.371143,0.09622 -0.751002,0.158118 -1.119662,0.26345 -0.06333,0.01809 0.133691,0.01597 0.197587,0 0.768395,-0.192099 0.512264,-0.256132 1.383112,-0.461037 0.47786,-0.112438 0.969269,-0.159166 1.448974,-0.26345 0.53072,-0.115374 1.0538,-0.26345 1.580699,-0.395175 0.570808,-0.109771 1.143375,-0.210761 1.712425,-0.329312 0.04299,-0.009 -0.08877,-0.0091 -0.131725,0 -1.099625,0.232612 -2.191965,0.49925 -3.293124,0.724487 -0.831087,0.169995 -1.671906,0.289976 -2.502774,0.461037 -0.662422,0.136381 -1.334264,0.247167 -1.975874,0.461037 -0.162668,0.05422 -0.483394,0.182281 -0.395174,0.329313 0.101657,0.169429 0.39707,0.02731 0.592762,0 0.750702,-0.104749 1.4928,-0.263918 2.239324,-0.395175 2.41431,-0.424494 5.015002,-0.897383 7.442459,-1.251387 0.875737,-0.127712 1.765768,-0.160393 2.634498,-0.329312 0.09638,-0.01874 -0.16601,-0.14378 -0.263449,-0.131725 -5.078932,0.628321 -5.114398,0.534996 -8.957296,1.778286 -0.555012,0.179563 -1.095091,0.4026 -1.646562,0.592763 -0.08557,0.02951 -0.344413,0.02538 -0.26345,0.06586 0.117819,0.05891 0.264467,0.01634 0.395175,0 0.573064,-0.07163 1.141228,-0.178197 1.712424,-0.26345 2.85066,-0.425472 2.391519,-0.275204 5.07141,-0.922074 0.486656,-0.117469 0.972161,-0.242595 1.448975,-0.395175 0.07539,-0.02412 0.253559,-0.07575 0.197587,-0.131725 -0.07762,-0.07762 -0.219634,-0.0045 -0.329312,0 -1.493075,0.06136 -2.991444,0.05178 -4.478648,0.197587 -0.758461,0.07436 -1.500778,0.273044 -2.239324,0.461037 -0.470958,0.119881 -0.956476,0.228327 -1.383112,0.461038 -0.09828,0.0536 -0.169196,0.286256 -0.06586,0.329312 0.263449,0.109771 0.571164,0.01425 0.856212,0 3.647898,-0.182395 3.856606,-0.242625 8.035221,-0.922074 1.058264,-0.172076 2.11057,-0.379937 3.161398,-0.592763 0.68383,-0.138497 1.439066,-0.109479 2.041737,-0.461037 0.360307,-0.210179 -0.836187,-0.04006 -1.251387,0 -4.386132,0.423223 -5.055444,0.306765 -8.232809,1.251387 -0.160265,0.04765 -0.627212,0.216051 -0.461037,0.197587 0.359863,-0.03998 0.694518,-0.218539 1.0538,-0.26345 1.372722,-0.17159 -0.642695,0.807137 1.580699,-0.526899 0.09413,-0.05648 0.284977,-0.08995 0.26345,-0.197588 -0.02319,-0.115931 -0.214026,-0.105523 -0.329313,-0.131725 -0.369563,-0.08399 -0.744062,-0.147026 -1.119662,-0.197587 -2.78492,-0.374893 -4.237234,-0.437354 -7.442459,-0.329312 -0.256821,0.0087 -0.688146,0.0091 -0.724487,0.26345 -0.03242,0.226904 0.430928,0.171314 0.658625,0.197587 0.918331,0.105961 1.842177,0.223989 2.766224,0.197587 2.923987,-0.08354 5.84016,-0.345459 8.759708,-0.526899 0.966361,-0.06006 1.932687,-0.121881 2.897949,-0.197588 0.154764,-0.01214 0.60831,-0.01677 0.461037,-0.06586 -0.208276,-0.06942 -0.439371,-0.01124 -0.658625,0 -0.637345,0.03268 -1.278243,0.04147 -1.910011,0.131725 -1.04434,0.149191 -2.06108,0.451733 -3.095536,0.658624"
         id="path10" /><path
         style="fill:#fcea2b;fill-opacity:1"
         d="M 48.408914,42.283705 40.637143,32.865372"
         id="path11" /><rect
         style="fill:#fcea2b;fill-opacity:1"
         id="rect11"
         width="9.813508"
         height="10.735582"
         x="39.912655"
         y="26.806025" /><rect
         style="fill:#fcea2b;fill-opacity:1"
         id="rect12"
         width="9.1548834"
         height="9.220746"
         x="23.117727"
         y="25.883949" /><rect
         style="fill:#fcea2b;fill-opacity:1"
         id="rect13"
         width="25.35705"
         height="6.4545221"
         x="24.434977"
         y="42.942329" /></g></g></svg>
