<?xml version="1.0" encoding="UTF-8" standalone="no"?>
<!-- Created with Inkscape (http://www.inkscape.org/) -->

<svg
   width="39.325287"
   height="54.994225"
   viewBox="0 0 39.325287 54.994225"
   version="1.1"
   id="svg1"
   xml:space="preserve"
   xmlns:inkscape="http://www.inkscape.org/namespaces/inkscape"
   xmlns:sodipodi="http://sodipodi.sourceforge.net/DTD/sodipodi-0.dtd"
   xmlns="http://www.w3.org/2000/svg"
   xmlns:svg="http://www.w3.org/2000/svg"><sodipodi:namedview
     id="namedview1"
     pagecolor="#505050"
     bordercolor="#ffffff"
     borderopacity="1"
     inkscape:showpageshadow="0"
     inkscape:pageopacity="0"
     inkscape:pagecheckerboard="1"
     inkscape:deskcolor="#505050"
     inkscape:document-units="px"><inkscape:page
       x="0"
       y="0"
       width="39.325287"
       height="54.994225"
       id="page2"
       margin="0"
       bleed="0" /></sodipodi:namedview><defs
     id="defs1" /><g
     inkscape:label="Layer 1"
     inkscape:groupmode="layer"
     id="layer1"
     transform="translate(-138.76442,-9.0571994)"><g
       id="g1"
       transform="matrix(3.7498018,0,0,3.7291667,-44.997622,-44.75)"><g
         id="color"><path
           fill="#92d3f5"
           d="m 54.25,28.1758 a 4.2422,4.2422 0 0 1 -4.2442,-4.2427 c 0,-4.2026 4.211,-8.4619 4.253,-8.5044 0.1543,0.1729 4.2343,4.3228 4.2343,8.5039 A 4.241,4.241 0 0 1 54.25,28.1758 Z"
           id="path1" /></g><g
         id="hair" /><g
         id="skin" /><g
         id="skin-shadow" /><g
         id="line"><path
           fill="none"
           stroke="#000000"
           stroke-linejoin="round"
           stroke-width="2"
           d="m 54.25,28.1758 a 4.2422,4.2422 0 0 1 -4.2442,-4.2427 c 0,-4.2026 4.211,-8.4619 4.253,-8.5044 0.1543,0.1729 4.2343,4.3228 4.2343,8.5039 A 4.241,4.241 0 0 1 54.25,28.1758 Z"
           id="path4" /></g></g></g></svg>
