<?xml version="1.0" encoding="UTF-8" standalone="no"?>
<!-- Created with Inkscape (http://www.inkscape.org/) -->

<svg
   width="180.01878"
   height="179.92128"
   viewBox="0 0 180.01878 179.92128"
   version="1.1"
   id="svg1"
   xml:space="preserve"
   inkscape:export-filename="tongue.svg"
   inkscape:export-xdpi="96"
   inkscape:export-ydpi="96"
   xmlns:inkscape="http://www.inkscape.org/namespaces/inkscape"
   xmlns:sodipodi="http://sodipodi.sourceforge.net/DTD/sodipodi-0.dtd"
   xmlns="http://www.w3.org/2000/svg"
   xmlns:svg="http://www.w3.org/2000/svg"><sodipodi:namedview
     id="namedview1"
     pagecolor="#505050"
     bordercolor="#ffffff"
     borderopacity="1"
     inkscape:showpageshadow="0"
     inkscape:pageopacity="0"
     inkscape:pagecheckerboard="1"
     inkscape:deskcolor="#505050"
     inkscape:document-units="px"><inkscape:page
       x="0"
       y="0"
       width="180.01878"
       height="179.92128"
       id="page2"
       margin="0"
       bleed="0" /></sodipodi:namedview><defs
     id="defs1" /><g
     inkscape:label="Layer 1"
     inkscape:groupmode="layer"
     id="layer1"
     transform="translate(0.0801404,-0.081853)"><g
       id="g3"
       transform="matrix(3.7503913,0,0,3.74836,-45.084836,-44.898467)"
       style="display:inline"><g
         id="color"><path
           fill="#ffffff"
           d="m 41.6682,45.5925 c 2.018,-1.0892 3.6277,-2.7511 4.4969,-4.7746 -1.9847,0.9853 -6.1585,1.5931 -10.5745,1.5426 C 31.536,42.3141 27.879,41.7197 26.0735,40.8179 H 25.835 c 0.939,2.1647 2.7178,3.8986 4.9168,4.9729"
           id="path2" /><path
           fill="#ea5a47"
           d="m 41.5772,41.818 c 0,6.0751 -2.5324,11 -5.6562,11 -3.1239,0 -5.6563,-4.9249 -5.6563,-11"
           id="path3" /></g><g
         id="hair" /><g
         id="skin" /><g
         id="skin-shadow" /><g
         id="line"><path
           fill="none"
           stroke="#000000"
           stroke-linecap="round"
           stroke-linejoin="round"
           stroke-miterlimit="10"
           stroke-width="2"
           d="m 30.7517,45.7908 c -2.199,-1.0742 -3.9778,-2.8081 -4.9168,-4.9729 m 20.3301,10e-5 c -0.8692,2.0234 -2.4789,3.6854 -4.4969,4.7746 M 26.0734,40.818 c 1.8055,0.9018 5.4625,1.4962 9.5171,1.5426 4.4161,0.0505 8.5899,-0.5572 10.5745,-1.5426"
           id="path5" /><path
           fill="none"
           stroke="#000000"
           stroke-miterlimit="10"
           stroke-width="2"
           d="m 41.6597,41.818 c 0,6.0751 -2.5324,11 -5.6562,11 -3.1238,0 -5.6563,-4.9249 -5.6563,-11"
           id="path6" /></g></g></g></svg>
