<?xml version="1.0" encoding="UTF-8" standalone="no"?>
<!-- Created with Inkscape (http://www.inkscape.org/) -->

<svg
   width="124.64973"
   height="111.52402"
   viewBox="0 0 124.64973 111.52402"
   version="1.1"
   id="svg1"
   xml:space="preserve"
   inkscape:export-filename="mouth4.svg"
   inkscape:export-xdpi="96"
   inkscape:export-ydpi="96"
   xmlns:inkscape="http://www.inkscape.org/namespaces/inkscape"
   xmlns:sodipodi="http://sodipodi.sourceforge.net/DTD/sodipodi-0.dtd"
   xmlns="http://www.w3.org/2000/svg"
   xmlns:svg="http://www.w3.org/2000/svg"><sodipodi:namedview
     id="namedview1"
     pagecolor="#505050"
     bordercolor="#ffffff"
     borderopacity="1"
     inkscape:showpageshadow="0"
     inkscape:pageopacity="0"
     inkscape:pagecheckerboard="1"
     inkscape:deskcolor="#505050"
     inkscape:document-units="px"><inkscape:page
       x="0"
       y="0"
       width="124.64973"
       height="111.52402"
       id="page2"
       margin="0"
       bleed="0" /></sodipodi:namedview><defs
     id="defs1" /><g
     inkscape:label="Layer 1"
     inkscape:groupmode="layer"
     id="layer1"
     transform="translate(-27.711675,-43.759376)"><g
       id="g3"
       transform="matrix(3.7503913,0,0,3.74836,-45.084836,-44.898467)"
       style="display:inline"><g
         id="color" /><g
         id="hair" /><g
         id="skin" /><g
         id="skin-shadow" /><g
         id="line" /><g
         id="g4"
         transform="matrix(0.99650974,0,0,0.99888313,0.10990551,-0.31284782)"><g
           id="color-2"><path
             fill="#ffffff"
             d="m 48.5859,42.6735 c 0,5.6296 -4.1784,10.1046 -12.5541,10.1046 -8.3738,0 -12.6069,-4.4888 -12.6069,-10.1047 0,0 13.0254,3.0311 25.161,10e-5 z"
             id="path3" /></g><g
           id="hair-4" /><g
           id="skin-5" /><g
           id="skin-shadow-5" /><g
           id="line-1"><path
             fill="none"
             stroke="#000000"
             stroke-linecap="round"
             stroke-linejoin="round"
             stroke-miterlimit="10"
             stroke-width="2"
             d="m 48.5859,42.6735 c 0,5.6296 -4.1784,10.1046 -12.5541,10.1046 -8.3738,0 -12.6069,-4.4888 -12.6069,-10.1047 0,0 13.0254,3.0311 25.161,10e-5 z"
             id="path4" /></g></g></g></g></svg>
