<?xml version="1.0" encoding="UTF-8" standalone="no"?>
<!-- Created with Inkscape (http://www.inkscape.org/) -->

<svg
   width="179"
   height="179"
   viewBox="0 0 179 179"
   version="1.1"
   id="svg1"
   xml:space="preserve"
   inkscape:export-filename="faceWithoutDrop.svg"
   inkscape:export-xdpi="96"
   inkscape:export-ydpi="96"
   xmlns:inkscape="http://www.inkscape.org/namespaces/inkscape"
   xmlns:sodipodi="http://sodipodi.sourceforge.net/DTD/sodipodi-0.dtd"
   xmlns="http://www.w3.org/2000/svg"
   xmlns:svg="http://www.w3.org/2000/svg"><sodipodi:namedview
     id="namedview1"
     pagecolor="#505050"
     bordercolor="#ffffff"
     borderopacity="1"
     inkscape:showpageshadow="0"
     inkscape:pageopacity="0"
     inkscape:pagecheckerboard="1"
     inkscape:deskcolor="#505050"
     inkscape:document-units="px"><inkscape:page
       x="0"
       y="0"
       width="179"
       height="179"
       id="page2"
       margin="0"
       bleed="0" /></sodipodi:namedview><defs
     id="defs1" /><g
     inkscape:label="Layer 1"
     inkscape:groupmode="layer"
     id="layer1"><g
       id="g2"
       transform="matrix(3.7291667,0,0,3.7291667,-44.75,-44.75)"
       style="display:inline"><g
         id="color-0"><path
           fill="#ea5a47"
           d="m 50.5707,44.471 c 0,0 6.3864,4.2101 6.3864,7.6241 0,2.4671 -1.5752,4.5107 -4.2717,4.5107 -3.7214,0 -7.6844,-6.2448 -7.6844,-6.2448"
           id="path1" /></g><g
         id="hair-9" /><g
         id="skin-4" /><g
         id="skin-shadow-8" /><g
         id="line-8"
         style="display:inline"><path
           fill="none"
           stroke="#000000"
           stroke-miterlimit="10"
           stroke-width="2"
           d="m 50.5707,44.471 c 0,0 6.3864,4.2101 6.3864,7.6241 0,2.4671 -1.5752,4.5107 -4.2717,4.5107 -3.7214,0 -7.6844,-6.2448 -7.6844,-6.2448"
           id="path5" /><path
           fill="none"
           stroke="#000000"
           stroke-linecap="round"
           stroke-linejoin="round"
           stroke-miterlimit="10"
           stroke-width="2"
           d="M 20.1657,41.3575 C 22.3985,47.9591 28.644,52.7116 36,52.7116 c 7.3561,0 13.6024,-4.7533 15.8349,-11.3559"
           id="path6" /></g></g></g></svg>
