<?xml version="1.0" encoding="UTF-8" standalone="no"?>
<!-- Created with Inkscape (http://www.inkscape.org/) -->

<svg
   width="97.510162"
   height="22.490162"
   viewBox="0 0 97.510162 22.490162"
   version="1.1"
   id="svg1"
   xml:space="preserve"
   inkscape:export-filename="tongue.svg"
   inkscape:export-xdpi="96"
   inkscape:export-ydpi="96"
   xmlns:inkscape="http://www.inkscape.org/namespaces/inkscape"
   xmlns:sodipodi="http://sodipodi.sourceforge.net/DTD/sodipodi-0.dtd"
   xmlns="http://www.w3.org/2000/svg"
   xmlns:svg="http://www.w3.org/2000/svg"><sodipodi:namedview
     id="namedview1"
     pagecolor="#505050"
     bordercolor="#ffffff"
     borderopacity="1"
     inkscape:showpageshadow="0"
     inkscape:pageopacity="0"
     inkscape:pagecheckerboard="1"
     inkscape:deskcolor="#505050"
     inkscape:document-units="px"><inkscape:page
       x="0"
       y="0"
       width="97.510162"
       height="22.490162"
       id="page2"
       margin="0"
       bleed="0" /></sodipodi:namedview><defs
     id="defs1" /><g
     inkscape:label="Layer 1"
     inkscape:groupmode="layer"
     id="layer1"
     transform="translate(-44.924557,-60.055614)"><g
       id="g3"
       transform="matrix(3.7503913,0,0,3.74836,-45.084836,-44.898467)"
       style="display:inline"><g
         id="color"
         style="display:inline" /><g
         id="hair"
         style="display:inline" /><g
         id="skin"
         style="display:inline" /><g
         id="skin-shadow"
         style="display:inline" /><g
         id="line"
         style="display:inline"><circle
           cx="36"
           cy="36"
           r="23"
           fill="none"
           stroke="#000000"
           stroke-miterlimit="10"
           stroke-width="2"
           id="circle3"
           style="display:none" /><path
           fill="none"
           stroke="#000000"
           stroke-linecap="round"
           stroke-linejoin="round"
           stroke-miterlimit="10"
           stroke-width="2"
           d="m 40,31.7253 c 0.4132,-0.344 2.2456,-1.7915 4.9091,-1.6364 2.1608,0.1259 3.61,1.2333 4.0909,1.6364"
           id="path4"
           style="display:inline" /><path
           fill="none"
           stroke="#000000"
           stroke-linecap="round"
           stroke-linejoin="round"
           stroke-miterlimit="10"
           stroke-width="2"
           d="m 30.7517,45.7908 c -2.199,-1.0742 -3.9778,-2.8081 -4.9168,-4.9729 m 20.3301,10e-5 c -0.8692,2.0234 -2.4789,3.6854 -4.4969,4.7746 M 26.0734,40.818 c 1.8055,0.9018 5.4625,1.4962 9.5171,1.5426 4.4161,0.0505 8.5899,-0.5572 10.5745,-1.5426"
           id="path5"
           style="display:none" /><path
           fill="none"
           stroke="#000000"
           stroke-miterlimit="10"
           stroke-width="2"
           d="m 41.6597,41.818 c 0,6.0751 -2.5324,11 -5.6562,11 -3.1238,0 -5.6563,-4.9249 -5.6563,-11"
           id="path6"
           style="display:none" /><path
           d="m 30,31 c 0,1.6568 -1.3448,3 -3,3 -1.6553,0 -3,-1.3433 -3,-3 0,-1.6552 1.3447,-3 3,-3 1.6552,0 3,1.3448 3,3"
           id="path7"
           style="display:inline" /></g></g></g></svg>
