<?xml version="1.0" encoding="UTF-8" standalone="no"?>
<!-- Created with Inkscape (http://www.inkscape.org/) -->

<svg
   width="124.64973"
   height="111.52402"
   viewBox="0 0 124.64973 111.52402"
   version="1.1"
   id="svg1"
   xml:space="preserve"
   inkscape:export-filename="mouth4.svg"
   inkscape:export-xdpi="96"
   inkscape:export-ydpi="96"
   xmlns:inkscape="http://www.inkscape.org/namespaces/inkscape"
   xmlns:sodipodi="http://sodipodi.sourceforge.net/DTD/sodipodi-0.dtd"
   xmlns="http://www.w3.org/2000/svg"
   xmlns:svg="http://www.w3.org/2000/svg"><sodipodi:namedview
     id="namedview1"
     pagecolor="#505050"
     bordercolor="#ffffff"
     borderopacity="1"
     inkscape:showpageshadow="0"
     inkscape:pageopacity="0"
     inkscape:pagecheckerboard="1"
     inkscape:deskcolor="#505050"
     inkscape:document-units="px"><inkscape:page
       x="0"
       y="0"
       width="124.64973"
       height="111.52402"
       id="page2"
       margin="0"
       bleed="0" /></sodipodi:namedview><defs
     id="defs1" /><g
     inkscape:label="Layer 1"
     inkscape:groupmode="layer"
     id="layer1"
     transform="translate(-27.711675,-43.759376)"><g
       id="g3"
       transform="matrix(3.7503913,0,0,3.74836,-45.084836,-44.898467)"
       style="display:inline"><g
         id="color" /><g
         id="hair" /><g
         id="skin" /><g
         id="skin-shadow" /><g
         id="line" /><g
         id="g4"
         transform="matrix(0.99650974,0,0,0.99888313,0.10990551,-0.31284782)"><g
           id="color-2"><path
             fill="#d22f27"
             d="m 26.4992,27.4384 c -1.2653,-3.3541 -6.441,-3.5687 -6.1168,1.3178 0.0431,0.6485 0.281,1.2724 0.6414,1.8135 l 5.3179,6.4224 v 0 l 5.2212,-6.266 c 0.5796,-0.6964 0.9224,-1.5779 0.905,-2.4853 -0.0863,-4.3523 -5.0509,-4.0351 -6.1274,-0.8036"
             id="path1" /><path
             fill="#d22f27"
             d="m 45.8012,27.4384 c -1.2547,-3.3541 -6.3873,-3.5687 -6.0658,1.3178 0.0428,0.6485 0.2787,1.2724 0.6361,1.8135 l 5.2737,6.4224 v 0 l 5.1777,-6.266 c 0.5747,-0.6964 0.9147,-1.5779 0.8974,-2.4853 -0.0856,-4.3523 -5.0089,-4.0351 -6.0763,-0.8036"
             id="path2" /></g><g
           id="hair-4" /><g
           id="skin-5" /><g
           id="skin-shadow-5" /><g
           id="line-1"><path
             fill="none"
             stroke="#000000"
             stroke-linecap="round"
             stroke-linejoin="round"
             stroke-miterlimit="10"
             stroke-width="2"
             d="m 26.4992,27.4384 c -1.2653,-3.3541 -6.441,-3.5687 -6.1168,1.3178 0.0431,0.6485 0.281,1.2724 0.6414,1.8135 l 5.3179,6.4224 v 0 l 5.2212,-6.266 c 0.5796,-0.6964 0.9224,-1.5779 0.905,-2.4853 -0.0863,-4.3523 -5.0509,-4.0351 -6.1274,-0.8036 z"
             id="path5" /><path
             fill="none"
             stroke="#000000"
             stroke-linecap="round"
             stroke-linejoin="round"
             stroke-miterlimit="10"
             stroke-width="2"
             d="m 45.8012,27.4384 c -1.2547,-3.3541 -6.3873,-3.5687 -6.0658,1.3178 0.0428,0.6485 0.2787,1.2724 0.6361,1.8135 l 5.2737,6.4224 v 0 l 5.1777,-6.266 c 0.5747,-0.6964 0.9147,-1.5779 0.8974,-2.4853 -0.0856,-4.3523 -5.0089,-4.0351 -6.0763,-0.8036 z"
             id="path6" /></g></g></g></g></svg>
